<mxfile host="65bd71144e">
    <diagram id="pX5-6VNbZVyPCqGmud-Y" name="Page-1">
        <mxGraphModel dx="1053" dy="656" grid="1" gridSize="10" guides="1" tooltips="1" connect="1" arrows="1" fold="1" page="1" pageScale="1" pageWidth="1100" pageHeight="850" math="0" shadow="0">
            <root>
                <mxCell id="0"/>
                <mxCell id="1" parent="0"/>
                <mxCell id="9" value="MARK&lt;br style=&quot;font-size: 32px&quot;&gt;&lt;font color=&quot;#66b2ff&quot;&gt;A REPO&lt;/font&gt;" style="shape=step;perimeter=stepPerimeter;whiteSpace=wrap;html=1;fixedSize=1;fontSize=32;strokeWidth=1;fillColor=#0050ef;fontColor=#ffffff;strokeColor=none;" parent="1" vertex="1">
                    <mxGeometry x="50" y="40" width="230" height="200" as="geometry"/>
                </mxCell>
                <mxCell id="10" value="EVALUATE&lt;br style=&quot;font-size: 32px&quot;&gt;&lt;font color=&quot;#66b2ff&quot;&gt;A REPO&lt;/font&gt;" style="shape=step;perimeter=stepPerimeter;whiteSpace=wrap;html=1;fixedSize=1;fontSize=32;strokeWidth=1;fillColor=#0050ef;fontColor=#ffffff;strokeColor=none;" parent="1" vertex="1">
                    <mxGeometry x="280" y="40" width="230" height="200" as="geometry"/>
                </mxCell>
                <mxCell id="11" value="REGISTER&lt;br style=&quot;font-size: 32px&quot;&gt;&lt;font color=&quot;#66b2ff&quot;&gt;A REPO&lt;/font&gt;" style="shape=step;perimeter=stepPerimeter;whiteSpace=wrap;html=1;fixedSize=1;fontSize=32;strokeWidth=1;fillColor=#0050ef;fontColor=#ffffff;strokeColor=none;" parent="1" vertex="1">
                    <mxGeometry x="510" y="40" width="230" height="200" as="geometry"/>
                </mxCell>
                <mxCell id="12" value="MONITOR&lt;br style=&quot;font-size: 32px&quot;&gt;&lt;font color=&quot;#66b2ff&quot;&gt;A REPO&lt;/font&gt;" style="shape=step;perimeter=stepPerimeter;whiteSpace=wrap;html=1;fixedSize=1;fontSize=32;strokeWidth=1;fillColor=#0050ef;fontColor=#ffffff;strokeColor=none;" parent="1" vertex="1">
                    <mxGeometry x="740" y="40" width="230" height="200" as="geometry"/>
                </mxCell>
                <mxCell id="13" value="" style="rounded=0;whiteSpace=wrap;html=1;fontSize=32;strokeWidth=1;fillColor=#0050ef;fontColor=#ffffff;strokeColor=none;" parent="1" vertex="1">
                    <mxGeometry x="50" y="40" width="40" height="200" as="geometry"/>
                </mxCell>
                <mxCell id="14" value="" style="rounded=0;whiteSpace=wrap;html=1;fontSize=32;strokeWidth=1;fillColor=#0050ef;fontColor=#ffffff;strokeColor=none;" parent="1" vertex="1">
                    <mxGeometry x="950" y="40" width="30" height="200" as="geometry"/>
                </mxCell>
            </root>
        </mxGraphModel>
    </diagram>
</mxfile>